# xmcd
#
# Track frame offsets: 
#        150
#        29802
#        49721
#        63238
#        74690
#        91081
#        100327
#        111863
#        122294
#        146807
#
# Disc length: 2111 seconds
#
# Revision: 0
# Processed by: cddbd v1.5.2PL0 Copyright (c) Steve Scherf et al.
# Submitted via: ExactAudioCopy v0.99pb4
#
DISCID=8e083d0a
DTITLE=Various Artist - Nova 24h - CD 10 - 9h et tout le monde est à jeun
DYEAR=2009
DGENRE=
TTITLE0=Ralf GUM feat. Wunmi - Brother Like No Other (Rufuss Remix)
TTITLE1=Portishead - The Rip
TTITLE2=Sixto Rodriguez - Rich Folks Hoax
TTITLE3=Jonathan Richman and The Modern Lovers - Egyptian Reggae
TTITLE4=Framix - The Mistake
TTITLE5=Quincy Jones - I Heard That !
TTITLE6=Esther Phillips - And I Love Him !
TTITLE7=Jake One feat. MF Doom - Get'Er Done
TTITLE8=Shaun Escoffery - Days Like This (Spinna and Ticklah Club Mix Ed
TTITLE8=ition)
TTITLE9=Peter Tosh - You Can't Fool Me Again
EXTD=
EXTT0=
EXTT1=
EXTT2=
EXTT3=
EXTT4=
EXTT5=
EXTT6=
EXTT7=
EXTT8=
EXTT9=
PLAYORDER=
